<mxfile host="app.diagrams.net" agent="Mozilla/5.0 (Windows NT 10.0; Win64; x64; rv:135.0) Gecko/20100101 Firefox/135.0" version="26.0.16">
  <diagram name="第 1 页" id="c5TMwUsJnGhpJtE8DTKJ">
    <mxGraphModel dx="1221" dy="733" grid="1" gridSize="10" guides="1" tooltips="1" connect="0" arrows="1" fold="1" page="1" pageScale="1" pageWidth="827" pageHeight="1169" math="0" shadow="0">
      <root>
        <mxCell id="0" />
        <mxCell id="1" parent="0" />
        <mxCell id="9jp3E7d3-J23VqEIKpKm-1" value="" style="image;sketch=0;aspect=fixed;html=1;points=[];align=center;fontSize=12;image=img/lib/mscae/Cache_Redis_Product.svg;" parent="1" vertex="1">
          <mxGeometry x="170" y="170" width="119.05" height="100" as="geometry" />
        </mxCell>
        <mxCell id="9jp3E7d3-J23VqEIKpKm-6" value="" style="shape=image;verticalLabelPosition=bottom;labelBackgroundColor=default;verticalAlign=top;aspect=fixed;imageAspect=0;image=data:image/png,iVBORw0KGgoAAAANSUhEUgAAAncAAAD8CAYAAAAVIoJQAAAgAElEQVR4Xu29C5gVxZn//57B1UQRBobhEpWBOIPAACJGMKsMaGIUL6ig7ppBVv0ZQAir6H+T/E24RXNZXWHQjVzcVaNg8ovIosjFGJWZMbvxAq4ow2VGnUFjwjADA16COsz5VfU5fU53n+ruqu4+fW7ffh7zhDnVXW99qrr722+99VbkpZdeihIOEAABEAABEAABEACBvCAQ4eKuqChCX/nKV/OiQWgECIAACIAACIAACBQyAU3cnXjiiTRw4ED68ssvc5pFJBKhaBSOyJzuRBgPAiAAAiAAAiDgmQDXcwlxN2DAAOrq6vJ8MZwIAiAAAiAAAiAAAiCQWQKDBg2CuMtsF6B2EAABEAABEAABEAiOAMRdcCxxJRAAARAAARAAARDIOAGIu4x3AQwAARAAARAAARAAgeAIQNwFxxJXAgEQAAEQAAEQAIGME4C4y3gXwAAQAAEQAAEQAAEQCI4AxF1wLHElEAABEAABEAABEMg4AYi7jHcBDAABEAABEAABEACB4AhA3AXHElcCARAAARAAARAAgYwTgLjLeBfAABAAARAAARAAARAIjgDEXXAscSUQAAEQAAEQAAEQyDgBiLuMdwEMAAEQAAEQAAEQAIHgCEDcBccSVwIBEAABEAABEACBjBOAuMt4F8AAEAABEAABEAABEAiOAMRdcCxxJRAAARAAARAAARDIOAGIu4x3AQwAARAAARAAARAAgeAIBCbuDrQdpKNHvwjOMsuV+vUtoeOP/7u0XR8XBgEQAAEQAAEQAIF8IOBb3B1oO0R//O836N33Pkgrj27dutGgsq/RVZMvCrSe95u3Ukuz+ZJFZROoanDEdz3vv/8+RWgQDQrgWr6NwQXSRiCdYyhtRuPCIAACIAACeUvAl7h7v/nPtG7986HCKSoq0gTe4EGnBFLvywvOodvWf2661jduf4YeuXmw5+sfq11A0+b+F+1k0o4fX628kub8/Kc0HSLPM9NsPjEdYyib2wvbQAAEQAAEspuAZ3HX1dVFj/z6aTp8+GOthdNvuI569exhau0nn3xKv1u3QfvbzdP/0ZHEX/e30qbnX9LKXDflCure/SRT+bpX/kRv/u872t969jyZbrnp2kDIBv1i7opupQVn307PdnaZ7OtZOY+eePJGGhTx7xEMpOG4SGAEgh5DgRmGC4EACIAACBQkAc/irv6VN+i1N3bQCSccT/9y52zqxjxq1qOj4wgt+/f/0P688Cd3OAJ+v+VDevyJ32llbvv+LVRcbBaK/O/HmKC85+c1Wpk7b785kA4L+sV8rPlRmjZ5ScJrpxt54rEr6d63f0pVRRB3gXRcFl0k6DGURU2DKSAAAiAAAjlIwLO4e/6FenpnZyOdcuoAuuXG64VND1rc8UoW37Mkq8VdV/R9emzaVKp5u9PEpM/kB+ileybaDhEet/Xyyy/SC0vX04eVd+SEly/bbM6UPRB3uffky9RYyT1SsBgEQCAXCXgWd5ufr6OGXU1UNvAUunH6P0DcGQhw793Cu5bSs7FZZC3m7r41Yq8dj887a+56E79sn8LNNpszbQ/EXe48+jI9VnKHFCwFARDIZQK+xd3AgV+jqydfKmRw5Mgn9Ojjv9V+41OtTseHH/6Fnl6/UStyE4vP69Gju7C4Ps2brdOyRqO7mptpX1mZY5xdLr5sss3mTNsDcZc7j8BMj5XcIQVLQQAEcpmAb3HXr18f2r+/LXQGuSDuZKDk4ssm22zOtD0QdzIjPTvKZHqsZIJC89tb6a23Pqbe4y+n8WVqMb/R6BF665W9FOk5hMpGnkzFLgvCuvZtow28rrIxdP5IopZ3ttOOQxU0uco9u8Ght2vp2R1HKHLaGJouUT4TLK11dh3+iD6gAVTWU8zVyGP8qGQceYzrdmrp6E6jLz+bynwstPPTv2EzPPT2Nqprjjq2uevwXtqw4SM2Xsew8Zoae29nM2fa8s5e2nfoZBo1fojtWE30ySi164fNym99EHeSqVB4zjp+BJ23LqiXDY/1M+brC9pO40ALymb9mtzD2RKNeuYblD0pDAexHIUSD91MizsjP22MStpt9TL76QO/DyKv56vel0GNFVV7+Yvn8BF2Vg+zQLL7u+r1ncrzl9kT9R9RpMcQmny5/UtPdI3Yi3YPHR4oJ7j0unqPnEBXMDHTXL+BavcR6f+2s7Mr+hHVr9lGzUwoTaz2J3b0OjS2H3xCh2OPlkCOngMHJESDJhLqPqLDTPjacbXyMNr21sZaeqvDf3v99C+3RxOa3JbD3hCpjKuEgHcYi9Jjhgnr+vq91Ov8CTSqOJJsh4GpNq427qWikUkhp1//6+erf+yICPm5h/2c69ZbvsVdPsfcdTXX0mOPrKSa9fHguTjNbsdG0FW/+hktnCjOhffygmp6uMn8RDnj26x8PHcef8HcsLJJu1r0nbdTVtbyv48YMSLRd91Ov4ju/mlqGhUuRmoX/oRWrd8hvAa/QFHlCLrj52t859gLymZuE7e7uW4rPbIyGZdoHag8TnH2zJvpn2wYB2EPt6Pusa304gsv0DPvmPtYt4f39ZV3zqAbb5pgK/QyIe7eq32UHl3pbPcoZvevb54ofAYE0Qd6Xz628Mf0h9hwThzDZqyh+RNTvRk8HnXRXS/Qu4ayETqdZq42x6Q63UNO96Wor4IYK24PUqffk8LlZDrr8tiLSD/0F7OfF02Hphqdj+b62Mubi6zxZS6FDQJU1T6rmHFqu9EK/YXr1g7X36NJxom61ZyV9lUYrq0X0u228zYGIe7S2b+8Hbq42xEdQhOqBlBPV8jJAh07aqmuQ+2jwYmZilDVPzw64h8EA+njmEiNi7vEv9m41++vhJANQFT7vYdl7w2F7jAVhbiz8dw9fOFWYUoTI72z2ArYXwtWwLq97EXeA6cOFC2weI8JxB8bEiU7nX/tA28JX7QqgyYIm3l91sUmbjZoi1FYAmjrjiF+7bFLWWNnj9OiGLf+dmujyu9c2Cy4a25isY7quAmyD/i17FaH2405EXdRmiA7pjL3pXVlut+xotI/orJOLyxV8WS9vn6+XxuN5xu9bNqLuOVkGjyqIjn1WNydojveZC9RgUuM5T3t4GKKCaFiXSXwv1Hy33zK1jhFqXtzqMcAGqyiLISNPpnKzmRTyGyaVMZzFz3yEZuy/otm3+jxFVQcTzxvx9PouYuN/7jHkbVZJND9irt0969R3L3Vwfp5oDjW3Y7HIeY9O0xnKHmEObNXNn5Exeefbf7Q8eC9NU7l3zD+ZJO46/FOnTbNbxzPqp5omfvK6z2sImRl7LCWgbgTiLuRV15JXc+st/WGGSGKXmJuL3u/LxvV87NF3Fl37pAdsNx7Nu85s/dRlYFVIKuKO26r3Spmt/6WbadbOVWbRfYG2Qdhi7tRt8+jQf++LCVBuIibccz7HStu/eL0u3HKS3/5d+zjU3mxOC09vmhw3KOnxXCxOKwyyVgj/QXR67QhdGbZyX5MTZ5bbLRtT0ysGQ7upaqKbNemW70cppdtfMqYov6nJ73YYvX+eIl9SwiweBtO+2C7FneoHSKxGze040i8DPeUxv9mFb7p7F+dV9KblR5xF4RX1ikOs7l+G0VY/NzAHmbPXY8PtlF98wBTvKcUz/j4dxpPfu9h0XPBy/h1OgfiTiDujMD4tOZw9nB7x2baTpS/zu1l7+dlY+cp4XZeddEMmvj1mPXR919i043rNQ9PNog7J2HCxduwM2N223G2enf8MOT1GO3h9Y+YchF961uD2U7AseO9l1alTMfzv3sR80HctHY7n+jXFjFUEbRe+oDXHabnTuW+NLbd71jx03+2U0c8vom91AeXdadDOz6hXsxjcmgf8yCxZ41KDJOdZ8hqszYt23ESDR5v9pY4tS0ZmzSBRurqg59giRs0XkPWHm3sxOP5uNfs6yx4/nxWh8ewL0ebnNoYhLjj1+d8Pxh4lrYAwI+3zRqbKMvTS//qXNI9LZsQd0ZvruxNFRfHVnHHbd637xPTVaKRj6llx15qZh7IFC8sE2wJ8ecyyNziQ00xih7v4aDGnRNGiDsbcWedDtSmw6bcluI1UJlSEu1XqxrgLXrJO+1+we3eF62iQQHua6tqMx+AIsEril3U4ggf+zHdtjQ1Bs5uz18v9nBxN/2u92jGz26mCYPFsZPvPVZNVy1523T/eBHzss8xp3IiW3h5LmJ+9vMbU6ateUzeY39g2/4ZYjXT0QdhizvhfSmYpra7J7yMFT/9JwoOj7IYuZbDTMi1sJdRS0zQ8WnMwSxYvycTe2XFX2NTmnKBYvIv/9j0qjXmz65tiekrh8UConNl7dEXI/C2c4/mecWN2sINq5dQlr3bC9mtnXrclhfPnaN4jHsmrfbJxn7J8tSnz2X712hzuhdU+FnAkJi6tKygTogjudtEm5q9rOyv8cVBLEbwzAEJBFH6hFqY90+L1btiCPV0+HhJCGKf97DsohHZ8S8qB3EnEHeiaUAOT/RiEJV189wZO0L1ZSPygNnZ62dgOJ0bhM38+nZizU4M2k2Lqtojy0UkpEU2qPS3bN3GcnZeOy40H7nbfqGHaZzZbIvntw/CFHd+70u7ezhdScPdAqb1FxSxvbI7mDfBy4s5XS9/txeyvgoxJezOYRqS89enHXU2ReP5Ag+Dt8sSd8dfvB3UnXrZ3DjRI3+hZkPAvOr95VXEytYTVMydm3j1K+60FCJsWnnUSPZhIZEhQG8/T23ydrS/43luY0lGHIumZY0LTRICjXvlWDtGs1Xhpqw/TLB1vPKcFkog8gJ6Xbns5R52ey7Iji23chB3AnFnt1WY6CUbtrize9FzO25nK3jtVpe6DQSV31XFlKi82167KiJW1R63tmrpNfbto+b3XqRVS//LFHvp11PrVrfod9mPClVBHkQfhCnuVO5LzkI0hR70WPH6YtIf8C3MM3bF5d1pxxqW80zRS8brVhJ3MjFyetwY/YVeYelTekSYV6PD3Eou0M4b+UksdQnznBSzF2fisBN38b/biRQ9MN64KCHhUeI2VbH0KAJvpug8lXvMq7g7tG8vvd1sXKWcXMhh+jAL03On0r/GuEAVYBJlrXGD6RJ3uik8TrWeed64yDcevXhs6PiYWDV6+qxhD8Z7USVVkNd72M4bKYFWqQjEXY6JO967Ik+RsdfPvHIefe/m1Kk6pZHhUFj1BSmy122vXTsRG/QLW0ur8fIf6A8vvGsb72dEkQlxJ5qSVfU2pasPskPcifdzDnqsqNw/bgHT1hee1we+srgzBO+L25NMqqsn2n1rnznw3yjurILUzh43O+08T4f2vUHP1v9Fm7b+uublM8/D2QkHbdpXX9Tg2HFHqONI7JomkepwTu9RE2jEkdhKzMQhSJPiJL7TMi3LxZ1k/w5kizn2dZhj1lTGt2NZy4KEdIo7Pj7q6uKrnS8fQ9FXYqlQBg38hJo/YOOWeYInVg2hQ/FUQJrdlsU7XlfQermH3Z4LgfUBuxDEnWQSY+1GjW6lBWffboq7C9tzx+2QXTVpl0bE7wAKR9yl94WtiRKWn82aw9CNTSbEnRdhZm2Hl2vICDeZMkZb/KZCEcWtqtigOnbdxoPd724eIe5teOUtoqqqr8XeN/GdIHqNEnuobOux8QxZy/uZtouda17Nauft8CLu3ISOHp8nShbsJO544uZ0HNaUJ05sc2Va1l+y5+7Uc6D97iW2C3MkOifKFt1wcW+dSuX3zw62eEL78NAE3NnC1bIx4TeAzhzFJmOY6BvFV3lbYk/dPjzs73H1e9jtuSCBRLoIxF0OijtNaErmO+Pic8qvxAllpUeJpaDqC9JLTFo6PXd2YkBvJk8gHTn9dBrMUu2++4w5yXQ+iTuneDu7jxn+d6NHTEVY2X2Y+GWqYoPq2PV6j4QRMK31UYbFXTNL6TJ6FNu1IZ4fLnpkL9Xu+JisqVn0v+vTsonM/FzYsri6HRu2adPStkl0D7OdJnoyEWHpEJ5El7+sR7PVtmX6il6JgHj9MsY0HV4TSRvF3Ygj27XdQPwcolQx6Yy5M+bqE3kv9ZQtQs+mlsPQOY1NOlKhJFOaJKdeRVu6cTH1x5b+ibyKopx0fjyLqv0c1nOB2wVxl6PiTh9U7zeznR7uWmW7wwIv5xZbpTpAVV+Q3rxGqV5Sq7DQ7Va1RzTNKfJyyq5M9iJeVZh74We9vpdryAhsFWFVKOIurIDpdIo7o/iKCaj4SsL4wOrRIxlzpzKWdZGSSFyscrJkWdm9aa2rRFVS0BhNMYm7SCPzyCana3mSXz7tW8y8S70sylRLfcOTO7M0OMYFIz3LeM7C2J6qYYj3hBdWsMWcMU2KKB5N68e3TnLcMk4XNCIGbl0aPcKmV5mAtFtQUdwzzimeVofnu5s8yn4fY+sUrJvX2M0+ld/DfC5A3DECKi/mbJmWtRtQPP2F3ZZeQeS6C1JMucWMpWtBhUiM2InfbBF3IjGqKti9xO3J9AHEXerdaMyaP73K/kWj8mKwK6vXpYsm1RQRietaYsYcxRcrO/ryCup4LrYIxOht06fRerG9PKsMSZX1vyft5MmaY7XzxQl8ek2UiDnKYsMO9+gu3DnCmNfMuoNGWfyl78TYGOeoJWVWSBVjJ+6MW8sZkwNbV0LLiop09a/R/nR77rQVtYeiVMxCDox89L5/uzlKo8aL9zzm45mL5UjxENOuJrFk38lWNLM6+IKKwWzcpS68SSYFt3LnCae1fZctqVaCuDet1wjzuQBxl2fiTvvS47Fk06ZSzdudprGVSXFnFyPoZJNIdAeRCkU2vQmHJ7vKV+UDwctDwy4Jr9u0qrGudPWB3Xizs01WqKowVRnzql5e1f4KM2BaezlyzwkL7NenFI3iTnaBgDbtZhF3xpcnfznzramMiWF7DIwKV/h6ibmzjZvTkxyzqd+Jl7NYREuKDifx5NZv1n7S8+yJ4vrcrmUXc5f01KROW6qKu6D7VyTuNKE+yrzLSUJA8/Qihul3/XxNmLd0t/XcaR5g7p2M953uEdY9bnrfO4mrjn1HmHcz5qFL1Bsf9259w3+3emSNgnnkYeaVZgtRvE7Jy9TPy4T9XPAl7p5/oZ7e2dlIp5w6gG658XphGzs6jtCyf/8P7beFP7nDkcP7LR/S40/8Titz2/dvoeJic2fqJy++Z4n2f++8/WZZro7l1F4i4SyocMpbx2PtnmgeSBMmDFLayD7d4s7RZhvBqXmfnkvdN5bvm3vV3PUp/aaSxNjOHlnvq92UpN/4MC+D1ilG8KzbH6DFN6XmuuPj5PGXo3TjTRO1Ku2uEUQf2CVHTtkyzibXnl+mfsVdkHkiE96gHmqbqXsZF/yclBV7cUF0WDDFZleH22KLdC6ocBNoCQ+iYDWqrEAStTvhRTH0k9d4KNuVvnEBIhIusraH0b/pnJa1fnxYWRlFjyiu0Oq51PtSF4lRlrJnxwa2KwWP++MJiA2dzX+rY79Z74UU73YIW9+F/VzwJe7ef/9DWvfM7zWUF0z4e5ZP5tyUeyhocVdX/yd6ufa/80vc2bzw+Atn+JRYUH9L00V095M3amJO98DsPjZS2zLrlm9NpIFlcfSRFnr5kdRts1Sn8NxeNHZeIDub+fWctoDi8W7fKY/V2vQuyyv3TlGKCU7TuCr2DGSPAZFnk9tw68xvaduP8a3brPntdIP8ChE3tna/u22hxfdDju88l2BoTTeTrj6w2z2DtyVh17vv2saF+mWqJO4U7zfV/vIqEFTr4eVFwshLWgc/4o7nuVM5UrbXktgs3ukF7yX5rDG9inG61Dg9qeLJEfEzbq0mSk4tI+7C6l9ju1X6MlHWRhyJPJeqrNzEn9NiCKdxbVzk4bZYxRMTy0lhPhf0qj0vqOjq6qJHfv00HWbBjvyYfsN1LGDU7G375JNP6XfrNmi/3zz9Hx0Z/XV/K216/iWtzHVTrqDu3U8yla975U/05v/GtqTqyTK633LTtUEwz3jMndvKTa29bIupJyzibmd8dZoMBJXpO5nrqdqsX9NJBDjV6+ZZUbVH1g6+X++wnZlfLauzeXlBNd223rwdmhM3US5B2bZbr+vsmRUvfhHZlg6mKuJOdazI3A96mTD2izTaI3p5hi7u2JTbYLYgQD/0AHienmKwwY2i/z1F3BmmXkXTfvp1+VZtxLZm01fl8r/zKcO36vZqixKSU8bJ+CpR3yWEHftR9FJP7Aur5dUbo+2e4XZYRYSWVJet/uXC1044yIi7sPpX323kcI8KqjrTMi0b35prR1S8kjm6702qaz6JxWCmTpuLcjfaTmGzVd+vdCR3utDOrftY64PzimPbhulb1em5DrndOzaykAFtVwo2DkdVJHbKsPsg0PvSGFOqIuTdxoLo97CfC7oNnsWdfoGlDzxGXOiFdVxy0flUWTkksOoyPS3LG+LmlfEj7s5iW1QtltyiSgWqis3G66qKC9lcfSr2yLzguZj55+dm0LtTzXkN/XqZVBiLyqrws0sUrXINboNMH7jx59fh4/jXvyD68eQlge76oSLuVO83lf4KO2Ba9PJMt7g7jW33xfPzjRwfTMyd5wUgNh1jt+KVi6mWV95k8VWxlaxO3hrji9+4y4Hwxc2TJdexFbFMYHIP3cieTHBuZIl0meDg07GT4zskWM+VEnfxNDfGad0g+zeWK+4jOhJ1HuX6ql6jiLc7Q180YTfd7uYltoqvRKxhnIU1NpSXN+1QwUReMfuo4HGkdmPBKPC1+mwSUKvc+05lw34u6Lb4FncH2g7RH//7DXr3vQ+CYiG8Trdu3WhQ2dfoqskXBVpPNog73iAeZ/bjueatrvSGGsWdtqPCj1eyBRMxL6bdwV/Is2fenNbtyGRtttqoteER1ob19m3g4urKO2ewmDG5vVNVGGoPBIckxrqYOX9QbUrS6kyLO812xm/hXSsd099wflex7egWThwsHCLp6AOn8aB/ZJzW8hhNy7C4Ux0rMg+csNMccJtEU1JBvvz1dusxdzwRbMuOWFLYCdUDqEWwZZrqggouAvbt87ZTQvTIR/TWW8weU669VM8dD/rfsWNPYnsqmWk4kwCw8eLpyZW5R8koEkb0/Au9zRzsZSNZ/j+bfVpFOdms4yzd/cvHSj1bKZqyP7DFEMc8d5ayfPcO7lmzS9YrI+7shK9+rp1HNbFbRbw/tNXXZ7I9Zg3b1hn79evnT6DT9sUWVKRL4GXiuRCYuJN58KGMPAH+0q1jS8P1o6ysjAYPtntBN1NLSwu1RJPlI6z8BJvy8laolVSx2Xplvo8rb4N+RKiMyhwWi8hYpmIPF3ktdfsSDAeVMTE5WDGQSMaoNJXheQ5bmpMX1/iVscU2Cm0Iug+MNgXRn2lCp11WZaw42RF2wLTdVI9nT5iN98KaC45Pt541/mziAobvLRvU9mOqfRzzxMVezHZizbSLAa9AYapVGxua+EmKQn5+r4F86vJr1ONwPFlxnBtPXqx58LS9dtn2V3xlafHJKUmX7drJEzkf0VN7FHen0yg+FWlJEBx0/7pxd8tzZ3c+91bVsRQmvcdfbtoyLuEVjW8LZk1Kza/XsY+lpWGJsK2et9giCu6ZMz+frf3MRV1Plkxb32tWlFuRCzt9yt0Yf6el8BkZ2482iCPs54LRZt+euyAA4BogAAIgkKsEwk5z4BRknnj5s7jkwWxHB5lDS7R7uIc2rWjNQ2YUE6aN2OMLIZzEHU8zwVOoECX3b/US35QiMI2NshGl1jx9/IVfZZNLzYmRdTpX9/DoO1EY22O3gb1MHxjLDD6vinq8U6dN7drHKPrr33QmkXbyjMbi+2I56RwPl6lSfUq5pYV5bm08ddxj+zZLE1Q2fgDbW3Z7IjbP6vmz9rHTdLpKX4b9XLDaBnGn0lsoCwIgAAIWApkImNbqrDuSEsiejmlZnufuHRZsb1xc4LS37Ia3PqbeZWNoBNutoa45tuCOH/xv40e5L1AQDbBmvvG7Zf4wwqZjrdNuxnP5ObUdbPcEtu9oamJbtWEcEwCN9AFLMcOnHWPTyWzqVbDggv/WwXZWSHji1Kpi+7QOoB5HGtPav9YkwIomOhcvHuDKu2PfR3TYNtbPeVEMr9yYIkf3plo9erqRbiuX9XJ8nNexsTtY8JHjhU8mngtGOyHuvPQazgEBEACBLCXQcZgtGlDYX9WaWDZLmwWz4gTQv7E0QKIpWrtBEmX3xGGFeyIfBhvEXT70ItoAAiAAAiAAAiAAAnECEHcYCiAAAiAAAiAAAiCQRwQg7vKoM52aYl0VqtJsvuJxgk1KDZXrFGJZcC/EXkebQQAEQCCzBCDuMss/tNrt9kqVMcBp6y+Z8wu5DLgXcu+j7SAAAiCQGQIQd5nhHnqtsaS9j9D7LtnIRYZ1G/wtpWTCoTcuiysE9yzuHJgGAiAAAnlKAOIuTzsWzQIBEAABEAABEChMAhB3hdnvaDUIgAAIgAAIgECeEoC4y9OORbNAAARAAARAAAQKkwDEXWH2O1oNAiAAAiAAAiCQpwQg7vK0Y9EsEAABEAABEACBwiQAcVeY/Y5WgwAIgAAIgAAI5CkBiLs87Vg0CwRAAARAAARAoDAJQNwVZr+j1SAAAiAAAiAAAnlKAOIuTzsWzQIBEAABEAABEChMAiZx99WvfpU+++yzwiSBVoMACIAACIAACIBAHhA499xzKfLSSy9FTzzxRIpEIvTpp5/mQbPQBBAAARAAARAAARAoTAIXXHBBUtyNGzeuMCmg1SAAAiAAAiAAAiCQRwQSnjuIuzzqVTQFBEAABEAABECgYAlA3BVs16PhIAACIAACIAAC+UgA4i4fexVtAgEQAAEQAAEQKFgCEHcF2/VoOAiAAAiAAAiAQD4SgLjLx15Fm0AABEAABEAABAqWAMRdwXY9Gg4CIAACIAACIJCPBCDu8rFX0SYQAAEQAAEQAIGCJQBxV7Bdj4aDAAiAAAiAAPLhg4cAACAASURBVAjkIwGIu3zsVbQJBEAABEAABECgYAlA3BVs16PhIAACIAACIAAC+UgA4i4fexVtAgEQAAEQAAEQKFgCEHcF2/VoOAiAAAiAAAiAQD4SgLjLx15Fm0AABEAABEAABAqWAMRdwXY9Gg4CIAACIAACIJCPBCDu8rFX0SYQAAEQAAEQAIGCJQBxV7Bdj4aDAAiAAAiAAAjkIwGIu3zsVbQJBEAABEAABECgYAlA3BVs16PhIAACIAACIAAC+UgA4i4fexVtAgEQAAEQAAEQKFgCEHcF2/VoOAiAAAiAAAiAQD4SgLjLx15Fm0AABEAABEAABAqWgC9xt/Lh1bR7z3vU2dmZVoAjKofQZZd+m049pX9a68HFQQAEQAAEQAAEQCDXCXgWd396dTut+c360NrfrVs3qrl/YWj1oSIQAAEQAAEQAAEQyEUCnsTdoruXUHt7h9bea665jEYMPcPU9i87j9HPfrlM+9uN06+lQWWnembTfrCDHvzVo9r5JSXFNP+u24gLPRwgAAIgAAIgAAIgAAKpBDyJu7m3L9CuNOOWahrQv1/KVSPsL4vuWaL9fe6cm2hIxWBf7Lc8v5U2bn5Ju8asGdOocvgQX9fDySAAAiAAAiAAAiCQrwR8ibuFP7lDyCVocccrub9mFTU3f0jnjjuLqq+/Wqo/otRINbOXsv+NHZFoBU2eN48uVtSG/DqbN8WuMqTiUiqvkKoehUAABEAABEAABHKaQDu17j5EkaHlVJpD7cgZcbfswf+kpndbaOw5o+mG6ilSiLtoE83pU01rvjimlT/u2Bha/OZWmqsg7rqaaujCMQtoe7xGL9eQMhaFQAAEQAAEQAAEsohAO21d+STVtjGTor3pgpnVVJUjCg/izmUY7Vl2IZ0z/w1TqfMXb6NN8+C+y6I7sOBMibY10Z5oOQ21edBEd2+hFVvbqe/wS2hqVYmBD3tYrdtCu1rZg2rWJBrqg1xD/ZO0tbad+k+dS1OG+bgQTgUBEACBLCQQpSZae89mauDTkewYOSV3nnUQdy4DqmvLHCq+7glTqZt/c4RqLks9MdrYSJs2LqX71jfQ1FVqHsIsHNd5Z1Jm+oe59A+wkIDSEotL3+7v7ti5cFu+tpHa+oylW2eNE04V8DI/fbqR+o//Ls20ijv2JVrXWk7Xzfcn7vQ6IiX2dji3xvBV7N7slBLe69Uv5b0PiPyc66GxOAUEQCAjBPbXb6F1O9upqHQczZxanh4b2g5Sw67XqJ49l4OqA+JOoqv2LJtNM+evph1sWnfaPQ/TAxavXRDTvxJmoIhHApnqn8RXH6W683Vh5PVLsGHdg/TULqKioZNovuCBE4S4az3Q7kq8YV1syoKLyKtdvHcigcunPOqiY+la1gajf9Gt4jbmNVzb6lVUxq7utQ+c+tXNbvwOAiAAAmYCyY9cu+e5F2IQd16oWc7JlHgIwPSCuESm+sfJs+VVWOgdZpwuEAlEv+JOPz/IAWLnRaw90Jsqh/VWqqr1APNc0jhbz6XMxbz2gX+PpYx1KAMCIFAYBCDuMrKgQmZwZUo8yNiGMkSZ6Z/kDauLr9bdTXSwJBYnF217jVasaKTKeICuFkPX1ouGDpX3XyVERldsivWMeJyd5pVibv4DPE6EBQH37WMeBa3tB2N/KGG/xX+yxubp1+43dCxNqJS3yWm8ReJtT5aJMwpR3Pnvg9R+xT0GAiAAAt4JQNwFJu6+P6SR9m5eSjP/tYG2b9+uraIdfc5w+peH59GkCvNCiWjTZqpZskGYTmXv5hqq2bCXotRAu1ZvT6yo5Z18dnU1DYvEojCHXj6P/vlS83X5uUvvXU8N0Tfoze1FWrkxY8ZQZNgwuvqKO1LKex043P6lS+6lZxuiWlv5obf3qh+k2qXXs7dxEz239D56puH1hH3dmH1nD7uS7rzj8hRO+nl8dfH3l+xNmMvTz8xbPo+skQp8qnvZnmSrrIyc0tjs2cymyeN9x6/wjTHTSNQWP/3jlbd+Hhdvy1e8Sm1s0UMsts0QX8ZEVeXw3nSg7iCVMo9V664mTYh5iSHj06K7hl1MU4eVJKYZvdhu9arZe/7MV9emZVt7UeXUSR5WkcWYhDct678PUvvVC22cAwIgkCsEeMxdfWuUxU1XUFWVOR1K6m/t1FD/OtWyGD3tI5p9XPcbVk4Tq8alLH7jz5Kn2YI0fujvAP7BXVmanMXoW+XluRojW3DTsovefJg6Z32TFr3xhXBsWVfCOqVCEa2kFV3UeE0utm793vX05LYu27Hdr/q31Lj8Ul9jn4ujpbNn0KLV22yv0+usxfRirVl4ydjHLyg6l//dugDlpM5p9OinD9El8dVGujEb5/Sl6584mrAthbsgjY1q33npH1/QDSfrMXEm0cS8abuYh25/AwuebWhMeNYqh1VQaWVvGs48W6UBLbMPalo2dSrVKu5Y7F+D1xQBGVhQ4bMPhP0a1KDBdUAABLKOgH7Piz6+jb/NmlVCtSvZylqeNsV6MJE3cmq1KauATOiL15jsghR3I89JespEo8gqRoIUd5rgutBeWOr2+BV31mlIu7vFKtCsbXW7y0TCLZ3izq3vrDkIMyXu3ALude9PpA/z2rEHQTpyJ+WKuONfubuYd9P6Rew29vgX8yseztOv66UP3PrVzWb8DgIgkHsE5MRdOZupa6IGFmIygnnpxg/rxRp6iHnxXqXaXbEwmEg8fEZPPwXPXXwsBJHEWB9WJ42pph/94Aoqj+ylDfcuSvGiGb1ITuJOddrPKny4GFn01MOJKVieqmNv01Kau/ty+v08b547OwGptfnKK6iCbQMcZe3es+EZWrZzcsJzJzqP2zdm+pV0xxWxvYN3P3dfiifQKkTTJe689J1q/wT12NGFlWjlky4QdrE0JtqXHsuhxP+/XUoTq02tu1+jOubyTx4l7GEyNtXl7zMVivy0bGzVrtuhP9iMcYFu56j+nprTT3wFr33g1K+qtqI8CIBAbhCQEXci8aa3Tj+f/1vsiUPMne+YOw43xVtlmf7jZYyCRWaHCtmAfasnya+HTnRriPLyySRdls3nZ22D1VuWTnFn7TuRIBUxle2fYB41zgH3+o2u3+SqgmE/SwGyos4g7myypofquePizrA4Q8wxnjRZmxaNL+gIBnjiKqkLNsQVeOsDLKQIuLtwORDICQKy4s5uClWfJeBx1eIwF4i7QMSdKAGxNf4rXeJOJKDOZfF1D7H4uqBSI1rbYhcbZ72rnBgYy4qmfE2eTkvS56Bi7rgNor6zik1Re8MUd4mAextvHF8Vu66WaGoiNx3fMeJ1dtNfYrvbhN0TUHvo2MS7hSrufMTc8T0b3bPpiQlEqBeVsNXFqmGKXvrArV9z4i0FI0EABJQJyIg765SrsRJj2ipxHjuIO9/izm5fWCePWpCeO6dYOD5t+v//wN8qWZEnS8Zrp3qeoxhOk7iT7btMi7swA+6N4m58e2xHCj+H8atSaVrWo7gzPvT6Ms+f9dBTtoh+46lekiuR/bRa7tww+1XOIpQCARAIg4CUuHPYpQfizqWXgoi5kxUI6fLc8SZy792FbDuzWFKS1IOLvLtWLae5Q9SHrUg82m2V5uaNczoP4k7cN2EH3JvEXSS5rJ5bx5P8HmiPUF/BClxt2T3bNaMvS8Ni9Hr1rRxLVfE8e2GKu93DRLtsJNOkiOIR+fT0yq29fG+hJnOXhd2vMjahDAiAQDgEIO4MnHnWi0X3LNH+MnfOTTSkYrDvXsgXccdB6Lnn7NKU2E1lukH0Ku5EnjuIOzfaqb/r8XBBbiHjZIX9tGwyOXDqSty4aHLZW1Zvi+7NM8aNKJGxiQnU7gPDptzZ7LkLu1+V+KIwCIBAWglA3EHc0ZovjmkU7DyE1hHIRVXj5o20xGXFruzIlV1gILLDmqLFbjrXbQo3XQsqZL2umZuWDT/g3k7cJVaDJhIoG3tcTdwlFn7EkzLzoGCREBONUT2Jp12qF+Oq1WsnWnfBOEjv1L6qpUmZMLEisZOGXs/+hlfZquHeIXjuwu9X2fsd5UAABNJPAOIO4i4h7jgKmelQ47B0S+orO4St15EVmta4QzvvoVsMotvvvB1uizJEZYIUd176x41/JvYbtRN3zp4mOXGXsqI0Lu7ahVOoYjpOCz74Gbq4y+Zp2Uz0q9tYw+8gAALhEYC4S7O4u79mFTU3f0jnjjuLqq+/WqpnZVdJBr2gghvH4/Y2W1bB8i23flUxjx6wbEXGywcl7kSJiK359Hh9fHuxZUv2JLYGE53HvWCr2JZsF8fj//h08uxzv2sSsTKpZYxluOdv05zzTLtTcHtkdqhY/ObWlFhEL6tl7fpHalDZFMpEwL1IPCWmT1lMndhjJiPuUqd19eumQ9w1WHYvke0HpxVqstdwK5eJfnWzCb+DAAiERyBMcedlC0o7Ejmx/VhXVxf98K5f0NGjn9NF3xpPk6+4SKpnwxJ3bjtP6MLFKET4fqhDh8easbPh8cT+rfzfst42OwhWoWhXzirMZHd00K8nstONhZ0t6RR3bjbJrCh2GnCZ2m/UKu54io+1K9j2N7b5lHgr3MWdaFo3beJu5at0sM84urqKZ3Q3Hiy7+7rNtvvORnc/T+t29qILZvF9e9NzZKpf09MaXBUEQMALgfSLO2LPungyeIcYZVXbPYm7RXcvofb2Dq2ua665jEYMje1goB9fdh6jn/1ymfbPG6dfS4PKTlW1K1G+/WAHPfirR7V/l5QU0/y7bqNu3bpJXS8scceNEeWw040UiTunBvgWG5p3bAbzjtnvK8vrF8WnbZxzget5/Fwu7Kb/bivVXJbaEicWvDT3atYU3ai8t6xXz51s/0gNKkGhTATc8+nC5WvZitiEh86cK2kWy6Mnzv8mIe7iu1sYF4YEKe64CK2ta2KpTKKOyPVVvZVsVa/b4WeDbbtrZ6Jf3dqJ30EABMIlEIa4S9lnlqWGKmXpnvpPnWvaj1al5Z7E3c5djWy6bg1xj1qYx6yZNxDfZF32CFPccZv4tOvM+atT0pwkxN1m9vs/pP6utyeIXHdGNntYfTP+1ewVNP5ul0CZb9slWuShnzu2ejH9y7zkdK2oP3jdorbqde6Z0zdUcSfTP7LjylguE2kyEsJOn86Mf+2NL22iujqi4VV2wo5bzpMmb6FdrfEdIwSNtsbb8SLBirvXaC3LydfmrO3IKc+d1ex+E8ybcnvpy0z3q1+bcT4IgEDwBMIQd9zqhnVPsq0czSnd7Xa9kGmlJ3GnX3jlw6tp9573qLOzU6Yuz2VGVA6hyy79Np16Sn/P1wjzRB7P1sTyyRZRBZVX8P/MtWurZNk+srwMPypYmQgvlyYjY6tym6iJeUq4Tacze3idbofITpnzTC9J1s7N7D+NBYs1TFcb3dpi/N2tf1SuFXbAfeILTxd0LHmx5sHTVrGW03C+srSE7dwg3Qi2Q4T+PGHnDY28S8tXvJqSIDgdqVCcTXTOcyfdPI8Fw+5Xj2biNBAAgbwi0M5ylPJde3pRn1L13XeMKHyJO36hzz//glr2/TlteE888StM1A1I2/VxYRDwTiD8NBm66DB+0Wmxdk+zWLs27y3hZ1Ze/V3qw5ID17LrWPdATIi7Pr2pstR9mpRfT0uk3FZiWtiRsjeuP5NNZ4v3bfRSQfj96sVKnAMCIAACdgR8izugBYFCJZCZgPt22r2baGh8Jwkz+/hXn8fNWvsMLac+LOXJirXtKQsVgpqW5UJ0t08RavswY57LoaobzQoulpl+LdS7CO0GARBIBwGIu3RQxTVBIA8JtB5op4jSVAEXm2y6mJ2DAwRAAARAIDwCEHfhsUZNIAACIAACIAACIJB2AhB3aUfsrQK+mKFm9lL2v3JHJFpBk11WsMpdCaVAAARAAARAAARymQDEXZb2nmiLLidT/SY+zlIMMAsEQAAEQAAEQECRAMSdIjAUBwEQAAEQAAEQAIFsJgBxl829A9tAAARAAARAAARAQJEAxJ0iMBQHARAAARAAARAAgWwmAHGXzb0D20AABEAABEAABEBAkQDEnSIwFAcBEAABEAABEACBbCYAcZfNvQPbQAAEQAAEQAAEQECRAMSdIjAUBwEQAAEQAAEQAIFsJgBxl829A9tAAARAAARAAARAQJEAxJ0iMBQHARAAARAAARAAgWwmAHGXzb0D20AABEAABEAABEBAkQDEnSIwFAcBEAABEAABEACBbCYAcZfNvQPbQAAEQAAEQAAEQECRAMSdIjAUBwEQAAEQAAEQAIFsJgBxl829A9tAAARAAARAAARAQJEAxJ0iMBQHARAAARAAARAAgWwmAHGXzb0D20AABEAABEAABEBAkQDEnSIwFAcBEAABEAABEACBbCYAcZfNvQPbQAAEQAAEQAAEQECRAMSdIjAUBwEQAAEQAAEQAIFsJgBxl829A9tAAARAAARAAARAQJEAxJ0iMBQHARAAARAAARAAgWwm4EvcrXx4Ne3e8x51dnamtY0jKofQZZd+m049pX9a68HFQQAEQAAEQAAEQCDXCXgWd396dTut+c360NrfrVs3qrl/YWj1oSIQAAEQAAEQAAEQyEUCnsTdoruXUHt7h9bea665jEYMPcPU9i87j9HPfrlM+9uN06+lQWWnembTfrCDHvzVo9r5JSXFNP+u24gLPRwgAAIgAAIgAAIgAAKpBDyJu7m3L9CuNOOWahrQv1/KVSPsL4vuWaL9fe6cm2hIxWBf7Lc8v5U2bn5Ju8asGdOocvgQX9fDySAAAiAAAiAAAiCQrwR8ibuFP7lDyCVocccrub9mFTU3f0jnjjuLqq+/Ol/7o6DbFaVG2rypUWMwpOJSKq8oaBxoPAiAAAiEQmB//Raqb42yukpowtSxVBpKrWFX0k6tuw9RZGh5nrbPzDNnxN2yB/+Tmt5tobHnjKYbqqeEPSpQX5oJdDXV0IVjFtD2eD3HHRtDi9/cSnPhpE0zeVweBECg0Ak0rHuQntpFFOkqp+vmT6KheQeknbaufJJq21jDor3pgpnVVJWfCjbRcxB3eTeIc7NBe5ZdSOfMf8Nk/PmLt9GmeXDfpatHo21N9HRtI0VKK6iqSv5rNvaV35tGVI2loR4fkNG212j5ilepW9V3aWZVSbqaaLru/vonaUVdO42cMpemDBNXuX/3Flq/s5xmTi0PxSZUAgLZQCDfxV2UmmjtPZupgU8rssPpGZAN/RGEDRB3QVDMkmtEGxtp08aldN/6Bpq6Kru8Xm62dW2ZQ8XXPWEiefNvjlDNZVkCN1Qz2PTBAfYVXVpimT6w+7s34/QHOj+7/3h5kaWd1+Dv6zcbxZ32AljJXgDs677/0EkGgRebzmlXxBwpKfcgfv30sZ9zFRuH4nlFIK3iru0gNex6jX0QpvGjSaIO/lG6bmc7FZWOK4iPN4i7PLhFu2gTzelTTWu+OKa1JpumNFVs27NsNs2cv5p2sCnZafc8TA8UoNcu8YVJqeIpyrxKP326MZCvTv1aXIAMizQJBE3sxuDevd1M7PQxxKlYxR0Xak/XiqVP38qxNL7PIaqta6K2KI/piV+X2AN/90Hi9Q9P8f6lxv00rGNTKlpMkPjoN6Ha1hunnyHjuTN+4esCz/rVL/vIUBHMCS4e+9hp3Mjai3KFSyB94i45HVrEPpjmp8UjHkYduTc2IO5yr89SLFYRUGE3N5ttC5uFTH1J0TWWbp01zuS5C0rcpQqB5MPR7LEi0gRRbdQUo5Ii7uKCRNQ+LnBmDH+X1jJR2mbQZlHmBzvQzuZIWPxL3z7JM1vbmeATxP0YvYyiemSmWWTEXUzQxqaMDxgFNvMMtBrEqVNfRttfpxWsvaGKu3gfREpSx43MuEOZwiYAcZd//Q9xlwd9ms0CKptty76uT4osXay07m6ig/HpPS46VqxopMp4MDD3qu1p60VDh6rErKXWEeMgFngy4s7KUcaLZDcty18ya1nMmzWo224qWFawcRudyiY8lIx1KfMkamyjXqZV2blxoSUr7vz3sV2fZt8Ih0XZSQDiLjv7xY9VBSXuok2baemSe+nZhiht3x5bl8mnMEefM5yu+sE8+udLY8H7PCVHzeyl7H9jRyRaQZPnzaPvDGExbTWxmLYiGk5Xr3rItJqTn9e4eSMtvXc97dq2XVv52W3MGDp72JV05x2X06QK+8UBekzac880UEP0DXpze5FW9xh2/ogrf0C3X56aGmTv5hqq2bCX2dtAu1bH6tOPs6ur2XRbLHp06OXJtum/+7FVZsCp2sb7pmbJhhTmF8dXy9r1Cf+d18WZr2HM+fGNMdPoh6xv9HP536xlONdRP2BTv/E+t2tTujkZ69UFTxsTFTFxY1jhVdKb5XfsTQfqDlLpsN7UuquJDrDuVfXU6A9x0RSJMeZM/11d3AkE6gHBlG078+at5QsqJtHVw3olMLQxTyEXd9fOGsuSMiTjDt3E3Ygp36WSXVtoV6v96Iwy7xtnZvQW6vE3KiLRbfyriTv/fZw6btwsxO+FR6Cd9u9+ndZtZXGZzDvOj77sQ6Zy4liqYh+H7uKOx52+S7VsAdaBqNHrzp5L8WtYn2V6qIb+rCL+DCvtnSjWl937ohWrrbtfi9VzIHa/9mXn9R0+LmXRlzEcRKYOPd2LaAFZ6m/tjMnztLW1LTbDwGwYYbWBx/nVbTGV6c/i+aawqWe3dWaybfQzTgtC3PEX9NLZM2jR6m22rHqdtZherJ1HfI2cyNu06M2HqXPWN2nRG19o17DGtXFxcuv3rqcnt3XZ1nFu9W/poeVMpFlKbJzTl65/4qhjP/L6pv9uq2mBgWiFqegi1lWnfmyVHWyqtrmlQpHpE6ttfEHG0stY31+Y7DdrGacVuWFwMtqjP2BNHh/2ANnFvEj7G9iDpIE98OLipHJYBZVW9qbhcU+TTL8kHuAOU3dGr9vIqdV0Xpv7tKxTG3ShI2OfqIzOQkrc1cVTHShUZhKxKStpmfBa97opVlB8aXOMoJq4Y1f02cfCcaPAAEXzmwD3Qq99OrZQSHiPsVi48ZHNtqlQokxsLWcfYtqzx+awhnPI3PfWUArjx6WwGksKE9U6nJ5/xt9mTY2whVXi9uof03300A0BE6d0Mqpt9DMy817cWUWBHSw3cfcP/0S0hnnH9MMo7qzCxKlD+jGB18gEnvGQEXe8/Emd0+jRTx+iS+IDSlVA8Wv4tVV2sKna5kXcjTwn6eEU2cV5XXnj4/Tk6pgXVHTYLT4Ji5Nuk9tUpu6difRhXjv2kFbL08S/Qp+UzmPFXwb1Db3Yl3KJVMyd3gbd+2X1CraG4LnzG3Mn8tzJLqSwPsyVxV0coJc+dhs3svcryuUnAesY7jd0LE1gaY+0QA7mPa+tfdUk+kTCxLj4asLEChpWonva2UKpdUnRaLwHVb1qJjuZiBtRNY7Gxz36PIb16bWxD1ujfap1yIg77qErZR9bbX3KaSLzSGoRL/FZBl3cjhg/ibrqWLtZTO6IqZewBWMcppmF7cyIno5Fso1+RmVeizvNYyfw2pw0ppp+dOUVVMG2xI1G9tKeDc/Qsp2TbT13VsB8Sm/H66Ql2f0+m6q11sEF3Oa4h457f2af+13Hlaxc3E3bOZyqLdOvIs+R0dOkPPUp4KFqq+xgU7VNVdzpdnBRvvyHZ2j9uOHeRULPKRdw373nB3Qp6+/d/zY94X3Vr5Hi2QyRU0LcxeO0nB4Ku/qMpVmzSqiWPSD4/7cuuLDrG1248N/7SmRnN05byE7Lqk4NZlvMnZO42z3MbpVfbEq1jqV4MMYIehF3+stNtY/1utK3ElH2jke5bCRgXIjEQxemDrPG5yY//Lj9YnHH0pjQ6dr0rfUwijLxGJRbyZqw0ybBcGKRExN4qbGsanWIQlmMnES/G+vXGAjtTNrhuCjMUxvVR1deiztR7jSZxLh23j7RudY6jB5AvTusZazXaWT56Sps4vGs54o8f7KLFoKwVXWISdvmskOFqE+srEXetpTpcxvhZvSmhs/JOSBef/DoX8bqL/TY9GI/FrP3ssv0Cu9f40NaTtwl7edxPHxBgn6opkJpPcBW1R6o8Lyggnsd61hcYr8p7KvbMlid4uoyLe689TEWUqg+jwqpvFGQOIl/o0DzskOFc7iHu/ByFm7JHrOvx70OfhUpzx0rZzcLIJMXNPEhbZ1CNkzjOi20kgmdkR3DeS3urNOdIuElAiUSEiJRxc+11iEUgBbhImOHFsjPRF/jxufovgWrE4slhOJRMs9dumx1GmzpFHfWJMciT62o36xTxlamYXNKeL1svHFcsKyrJZqayBEVE2v9x1+ilCRXr6fdxhMl+l1V3FnHQtipUJziz7JZ3HnpY7dxI/sSQLn8JGCMSXMLW3BfUGHDSFtUsMYh5MNdeCXsdNkWzE44GVf6O4lYGXHnJG7t60+ysWPuv43qYzRvxZ3oRS/jteMIReJOtFuCqA7uKRp1jrkjomSODRMJtL2Nm+i5pffRMw2vJ1bKirrTq7gL0laVYZYucSeKlZPtcydxlwlOYQXEp0/cpY4It6lJu2nZ1gMs9Ut7LyphU0DGFWc6I+u0MhdFPFA84dWMfyEnVxwnbfMq7viWRXzFnugQ5eVza7vK/eNUNqxxE5S9uE64BPTxLuONkxF3/N5sqGer9FkMbWLFrKFJ4nrcxZ0phyVfGWuDybja3Rxz7F6HrOfOKfuAH3Hnv43qYydvxZ2sQJPx3NkG3Vs8ZrL4jQKNi4lNc2aw1bL2K3mN1/Uq7mQXlljbIONlzITnLl3iLmxOYQbEy4o7436vsp67hnq2qrTPJVQV37PVnHA5ti2W6bBJhaKXsW695rZa1uiZsBM9fsSd0xgPakGF7PODlwtz3KjYhbLZQ0BGsOnWOpXlz421T5sXXujn8Y8ePbVKIOJOBl+Khy/HxJ2nNsqcZC4DcSdgJu1tCkDcWb1IF1l/eQAAFa9JREFUevD/5WdU0OksLd7pkY104ZgFvqdlwxYtOlZplooxd/ki7uxWmKrfyu5nuIo7QfJdGXEnuq5RjJ2xm6VTYWlGVA5rXIqKuLNb3OFV3IWxoEKFDS8b5rhRtQ3ls4NAEOLOtJDAsMKzL9v3WkYYykyZGhdTTLxmnK3nzkjVuB2iTB38XKlpWYc0UYF47hhDb21UH1N5K+5k469EyGQFiagOlc3urfVYU51w26yLBLx67vzaqj60YmfIslRdLZsucRcup3AD4s0irBdLSnqI2llag9hjmi3lX8mW97MpSKMXTEbc6Q/X5KrR+CrSqL6iN1zPnfFBbhSJ+SPuwh03Xu99nJdZAm4rUI3W2QlBGUHjLCLdvWoydTiTdK8j0+LOfxvVx1LeijuOwhoYbze9asUmK0hEddgtvBCKSImFFlIrNwUeRJHItPJQsVV9aInFHf+ryLZsEXd++1SFk9M+sirXkS1rFXc8jUetJbEpD0ieZciwLifukltucWF4dWlsb1a7hRvcXruYO7u2qHjuYtdP3T4sX8Rd2ONGdnyhXHYRkF1QYb9a1pDaw9aj5Zz+Q8arJmunPd3sF3f+26g+tnJG3N1fs4qamz+kc8edRdXXXy3VUrvUGIueejix1Ri/EF/MsGzJHpq33H6HCp7Tbm58Kyxj5aJ0K+cuZjtRzEvdiYLX88BzRP/OfuOHq6CxiD9+joznjpcz5q/T7fVjqxRwQSG7lcd6HsCEbVkyLav1y5Y5VHzdE6bWyPapCqewA+Kt06c8QLrdOFvKvHjDDNMtvC3S4o5YFnyef49tnVY18SDVsnQkutBb+zRLbxI1k4myrdW0bX3YNEVfLQlo6tF3+CU0lSVS5oequBNdz6u4y7YFFWGPG5UxjbLZQ8A4pSq1UICZbo6bcxd3RtHiFnNnZ4NJXDpMi9qTdbcz8QzZJd6yUSYFiYz3zXa1bPz5yJ8lqltGeh1ROSHuurq66Id3/YKOHv2cLvrWeJp8xUXS7ZXd/cFthwo7cccNsauDJzvWD30vW6O3zC4Ojp9nXWGrX0ck7uySNevnGFcJe7VVGriloKxtrkJXIt1LEKtldfPTzUk16a9X/sbz3GLu9LJ2Qsrtd9ODPv6Q7sM8aLV1TSlbeEWJpVDYfZA96MppuM1GjDxHnp44VbeJZ64fblhOt7/hVardFROSU+KLOexY+RF3TvzDXFCRiXETxNjDNTJDwLhKk4uK66aOM6RPYgmM65+npwzxsNax7JTbje+PyveH1ndusFuVKzM9bEy0nmpnjJ2+H2u/KdUpe9LK1JHJmDtuv982qo4gT+Ju0d1L2Bd/h1bXNddcRiOGstT/huPLzmP0s18u0/5y4/RraVDZqap2Jcq3H+ygB3/1qPbvkpJimn/XbdStWzfp68muRvUj7twEjNFY61So2zZdNyxeTDsXLnRcUMGvL/I26fUaxZ0fW6WhWwrK2JZt4i7dnDIREJ9ucWedgjFO71rHjqdpWfbVbXekU9zZL6gQW5POVCiZGDde73ucl3kCwr1M4+lG9FWuPBRjqs3esqKdGbinXU9LwoVYVd/X2AeWeHcLTiBlD9j4Fl/9pxo/yMw7ZWjkDF593VbxzhBydWRa3PHno74NZGJkKLRRdTR5Enc7dzXSqofXEPeohXnMmnkD8Q3TvRx7Ns+mGf/6uG0OuXPZlmEPxbcMU4m5023RRGTNUlPCYaudfNuzu1YtT5ne3bNsNs2cn0xUzM/j8YHT2PRxzRD31bJ6PaLr8N9E22t5tdULe36Om23ZJu60Z4uPPnXilKk0FjLiLrENFpteNW6pZWyPnWdP9BAfMYGnRzHnrNPYxvPRGdOuODHLhOeOP4z1RSfW6WrH/hWsOvZ63xjPy9S4CcJ2XCOTBHjS8y2ah9t0xFe/VrG9Zg+se9A2EbFdKhS+T+1U5gl0OlevLyZqzCvmRR9k++u30NO1sX1kUw4mCvnzJHULtVhJtzoyL+5idvppo8oo8iTu9ApWPryadu95jzo7O1XqVC47onIIXXbpt+nUU/orn2s9Qdv5YXMTNUWjVESxdCN2W395rSzKd5ZoUq+Dx+Q1NbIvILYV2SSb7chkbNKvw9tXzq5T7qCHvdoqY4eojIptXutIx3lBcspUQLxRHCQ3vDbSOsSmaWLTnIlM7ywDfSu7V/jB0x9oD3q2WIJvmm1MJJpoU1c5XTtrLPtaN0/38A25K0t7E9+31jit6tRX+9lWZO1s1w7+MFeLuROszrVZDazX7zRlqzqe9Gs5bTOkek1ePlPjxoutOCcbCfD7gq2QZxqrhMXXGtOZSFnLngW72H8RSk0yLnU+/1ji9bPz+7BniU00RuxS/LnD/uNykNtqzXtpX59CHXJGp6+U5zbKmeRL3PEqPv/8C2rZ92e52jyUOvHErzBRN8DDmTgFBLKRQGbTWBjjPuzoGGNn7Mobg4L3M0/VCrZoInXKhMf0vE5bd+6NLZ7wcOhf9/xrt76VfblXsT1jDW8Fvip2N1vx28e0p22SsbVKu2Bmr+KuoZ6tON6ZXC2SWCjCKpaZKpZHktlxI28nSoIACGQDAd/iLhsaARtAIFcIZENAvC6IRMz4V/lQtvWXfnBv0Yqt1gTEzGs3dVJCZPE2rVjbSJVTUwOdTXUYvIDO/RXzLnj3EMSmPupbY6KLL95oY57GvsxryKegRB4Dr+JOKH616a7kSt8gxmY2jJsg2oFrgAAIhEMA4i4czqgFBEAABEAABEAABEIhAHEXCmZUAgIgAAIgAAIgAALhEIC4C4dzTtfCF6HUzF7K/lfuiEQraPK8eXSxIOmz3BVQCgRAAARAAARAwCsBiDuv5AroPLtky3YIZLd5KyCEaCoIgAAIgAAIhEYA4i401KgIBEAABEAABEAABNJPAOIu/YxRAwiAAAiAAAiAAAiERgDiLjTUqAgEQAAEQAAEQAAE0k8A4i79jFEDCIAACIAACIAACIRGAOIuNNSoCARAAARAAARAAATSTwDiLv2MUQMIgAAIgAAIgAAIhEYA4i401KgIBEAABEAABEAABNJPAOIu/YxRAwiAAAiAAAiAAAiERiAh7nr16kWfffZZaBWjIhAAARAAARAAARAAgWAJjB49mhLi7ssvvyT+Hw4QAAEQAAEQAAEQAIHcJHDBBRckxd1xxx1Hf/vb33KzJbAaBEAABEAABEAABECAzj///KS4GzduHJCAAAiAAAiAAAiAAAjkOAEsqMjxDoT5IAACIAACIAACIGAkAHGH8QACIAACIAACIAACeUQA4i6POhNNAQEQAAEQAAEQAAGIO4wBEAABEAABEAABEMgjAhB3edSZaAoIgAAIgAAIgAAIQNxhDIAACIAACIAACIBAHhGAuMujzkRTQAAEQAAEQAAEQADiDmMABEAABEAABEAABPKIAMRdHnUmmgICIAACIAACIAACEHcYAyAAAiAAAiAAAiCQRwQg7vKoM9EUEAABEAABEAABEPAt7j77PEq7PjhmS/KkSBsVdf3NM+kTT/wKnXrKAM/n40QQAAEQAAEQAAEQKCQCnsXdxte+oGX/9zNXVmP719LhP29zLedWoFu3blRz/0K3YvgdBEAABEAABEAABAqagCdx9z+7O2nxf35CXV3u7IISd7ymWTNvoMphFe6VogQIgAAIgAAIgAAIFCgBT+LuO3d2aLiuu+irNOW8E1LQHfi4i+bef0T7+y9u7U5nlx/nC++W57fSxs0vadeYNWMaVQ4f4ut6OBkEQAAEQAAEQAAE8pWAL3H35IJiKipKRRO0uOtiLsIf3vULOnr0c7roW+Np8hUXSfdHlBpp86ZGrfyQikup3IPjL9q0mWqWbGBXih2RaAXNWz6PyqWtQEEQAAEQAAEQAIHcI9BOrbsPUWRoOZXmkPG+xN1vFxULmxq0uOOVLHvwP6np3RYae85ouqF6ihTirqYaunDMAtoeL33csTG0+M2tNFfR8We9zkmd0+jRTx+iSyJSZqAQCIAACIAACIBAzhFop60rn6TaNmZ4tDddMLOaqnJE4eW1uNuz7EI6Z/4bpuF0/uJttGmemvsO4i7n7kgYDAIgAAIgAAK+CESpidbes5ka4o6ckVPm0pRhvi4Z2sl5Le66tsyh4uueMMG8+TdHqOYyNb4Qd2q8UBoEQAAEQAAE8oHA/vottG5nOxWVjqOZU9MUjNV2kBp2vUb1reWB1ZHX4o4PrD3LZtPM+atpB5uSnXbPw/SAoteOXwPiLh9uUbQBBEAABEAABLKNQHLqt2joJJofkIDMGXG37c236am1G7WVsrIxd0F1IcRdUCRxHRAAARAAARAAgSSBAhd3HERnZycdOHCQBgzoG+rIgLgLFTcqAwEQAAEQAIECIVCA4u7Ykb9S51+bKHqsk47rO5iOKylT6mxRCpPJ8+bRxYLVstHGRtpUM4Pu3fk6vbm9iPjK2tHnDKcfrnqILioyr7rFalmlbkBhEAABEAABEMhJAjzmrr41SpHSCqqqMqdDSf2tnRrqX6daFqPX2n5QW2Hbb1g5TawaR0Mtq2yjba/R07XtGpPWXU10gC/aKOlNlaW9E5z6Vk3yvDo3a6dlj+58kdoenmkaDL2qf0knfWMqSzQnl4NENhXKns0sLu8fVidSphgr5SLv+nuupJ0LFyZ+h7jLyXsURoMACIAACICAEoGGdQ/SU7uY7CgZS7fOGmfKdWf8bdasEqpdyVbW8rQp1oOJvJFTq00rbaO7t9BPn9az54pN8rM6N/vEXdcx+vCOMxzhn3LvDoocf6JrB8mIO9GKWrcLQ9y5EcLvIAACIAACIJD7BOTEXTkNizRRw4HeNIJ56cYP68Uafoh58V6l2l3Mg8eOSFc5XTd/Eg2NIyk4z92RTffRkd+v1Jrf47Lb6KtnTqLI332Fjr7zAnU8/TPt71895zIqqV7mOmrcxF0XbaI5fappzRfHEtfinrox06+kO644g6KRvbTh3kX05DbzJroQd67oUQAEQAAEQAAEcp6AjLgTiTe94fr5/N9iT1wBxNx9/PIqOvzMvdq0a+ncNXTC18eaBkZnewvt/8XFFGULK7qP/y4VT/2p48BxFXcSefD49mVLL/wmLXrji0RdEHc5f7+iASAAAiAAAiDgSkBW3NlNoXIP3fIVr2oxdf2ZbplZVWKpswDE3YFV/0SfN/yRji8bQX3nrRdCb398Dv1t+/N0XP9B1P9Hf/Al7jbO6UvXP3E0cY1eZy2mF2tT94y1Tt1C3LneDygAAiAAAiAAAjlPQEbcWadcjY027nIhzmNXAOLur7+4kDr376PuE6dT8VULhIPik7pHqGPdz9lU7Ql0yn07PYs7kUfObmsypELJ+fsTDQABEAABEAABZQJS4k6w2EKvKCfF3VN3F1MRczV2spC1aDTJ7MDHXTT3/iPaH35xa3c6u/w4KaAHHrqePt/7Op1Q8Q0qnfNb4TkHf3MnffbqM3Rcn1Oo/09qPYs7Ubyd3dZkEHdS3YdCIAACIAACIJBXBApK3Nn1HNd3R1lo2r42b+Ku8+A++us9F7H9vo7R3/X/OvX70e9NVenij/+xdO5qOuH0cyHu8uo2QmNAAARAAARAIHsIQNwZ+qLxoy6a48Fzxy9x6Kkf0ad/XKtdrdcN/0YnjmKrZbt1o6O7ahN5704Y+k0qnfWEa+87LahQmpa1LLxAzJ0rehQAARAAARAAgZwnUFDi7u6fL6PW1lhmZePxg//vVjrt1AHan/b++Rh9f8nHStOy+rVaa6bQF807hIPiuP5lbCHFi1IDxm21rMyCCqyWlUKNQiAAAiAAAiCQdwQKRtz98b/foN/+7llhBx5//PF04/RraeSIWBLi79zZ4Unc8WnZj+sfpcP/9UtTPT0unkUnf/v7Wt47mcNN3IkSGPer/i1tXn4plbMKuLDbNGcGW1G7zVQdPHcy9FEGBEAABEAABHKbQJjiTrQLhld6SjtUzF98P3UcOkxFRUV06SUX0MXfmaDV+8UXX9CzG16gWpaNmR8PLF3MUtVF6D+2HKWz2GIK2QUV1kZoMXg/vVD7c+nsX9MJQ85TaqebuBN55WQqgLiToYQyIAACIAACIJDbBNIv7ogSiY7ZNmUXzKz2vJ+skbSSuJt7eyw9ydVXXkIXXvD3KT2m/z571nQaNrScdn9wjD79PJq14o43wCoARcPwhsWLsbdsbt+fsB4EQAAEQAAElAmEIe5S9pkt6U2lbQep/9S5pv1oVYz3JO4erBHvDPH4E2vp9W07aPCg0+iO27+n2fHLpWvozy17VGyiSRdPpEsnsZx3afbc6UZFmzbTrd+7PnWbsTHVdNeq5TSnqIYuHLOAtsdPgOdOqTtRGARAAARAAARykkAY4o6DaVj3JD21y7yWwW7XCxmQgYq7Zzf8nl548RUqLe1NC358u1Z/zYOP0LvvNsvYkigTlLhTqpQVjjY2UmNTEzWxpH1DKljcXYXqFVAeBEAABEAABEAABLwQaKfWA4eonXpRn9ISKvVyifg5gYq7nyz6NzrccYTGnTOaplVP0ar44MO/0N/+ltziS8bWkt7FVFLSy+S5+7sB5RQ5sbvp9L5zYylTcIAACIAACIAACIAACMQIeBJ3/3TDNfSNs0elMNRj7v7Pzf9Io0cN983YOC0rutipNU2+68AFQAAEQAAEQAAEQCCfCCiJu1df/19avWZdov18+rQ387D94aV62v/XNu3vfCXtsiWLAmFkFHcnnHEuFfUoMV23pHpZIPXgIiAAAiAAAiAAAiCQLwSUxB1v9HMb/0DPv1AnbD8Xdtddczmd9/ffCISP3wUVgRiBi4AACIAACIAACIBADhFQFne8bX87epT+53+204tb/0hHDn9MQ884nUaPrqTzvhmMqNP5Qdzl0EiCqSAAAiAAAiAAAllBwJO4ywrLYQQIgAAIgAAIgAAIgEAKAYg7DAoQAAEQAAEQAAEQyCMCEHd51JloCgiAAAiAAAiAAAhA3GEMgAAIgAAIgAAIgEAeEYC4y6PORFNAAARAAARAAARAAOIOYwAEQAAEQAAEQAAE8ogAxF0edSaaAgIgAAIgAAIgAAIQdxgDIAACIAACIAACIJBHBCDu8qgz0RQQAAEQAAEQAAEQgLjDGAABEAABEAABEACBPCIAcZdHnYmmgAAIgAAIgAAIgADEHcYACIAACIAACIAACOQRAYi7POpMNAUEQAAEQAAEQAAEIO4wBkAABEAABEAABEAgjwhA3OVRZ6IpIAACIAACIAACIABxhzEAAiAAAiAAAiAAAnlEAOIujzoTTQEBEAABEAABEAABiDuMARAAARAAARAAARDIIwIQd3nUmWgKCIAACIAACIAACEDcYQyAAAiAAAiAAAiAQB4R0MRdt25FdPzxJ+RRs9AUEAABEAABEAABEChMAv8PpvpTU9c2S48AAAAASUVORK5CYII=;" parent="1" vertex="1">
          <mxGeometry x="440" y="140" width="400.63" height="160" as="geometry" />
        </mxCell>
        <mxCell id="9jp3E7d3-J23VqEIKpKm-7" style="edgeStyle=orthogonalEdgeStyle;rounded=0;orthogonalLoop=1;jettySize=auto;html=1;entryX=0.005;entryY=0.5;entryDx=0;entryDy=0;entryPerimeter=0;" parent="1" source="9jp3E7d3-J23VqEIKpKm-1" target="9jp3E7d3-J23VqEIKpKm-6" edge="1">
          <mxGeometry relative="1" as="geometry" />
        </mxCell>
        <mxCell id="9jp3E7d3-J23VqEIKpKm-8" value="&lt;div style=&quot;background-color:#ffffff;color:#080808&quot;&gt;&lt;pre style=&quot;font-family:&#39;JetBrains Mono&#39;,monospace;font-size:9.8pt;&quot;&gt;&lt;span style=&quot;color:#067d17;&quot;&gt;hits:storeHits:daily&lt;/span&gt;&lt;/pre&gt;&lt;/div&gt;" style="text;whiteSpace=wrap;html=1;" parent="1" vertex="1">
          <mxGeometry x="160" y="260" width="160" height="70" as="geometry" />
        </mxCell>
      </root>
    </mxGraphModel>
  </diagram>
</mxfile>
